{"title":"My Ghost Story S04E07 WEBRip HDTVXvid-GNeve","uid":7281762,"size":464631046,"categoryP":"video","categoryS":"tv_shows","magnet":"?xt=urn:btih:267365532ffe135c83021974c173e44b467e25d3&amp;dn=My+Ghost+Story+S04E07+WEBRip+HDTVXvid-GNeve&amp;tr=udp%3A%2F%2Ftracker.openbittorrent.com%3A80&amp;tr=udp%3A%2F%2Fopen.demonii.com%3A1337&amp;tr=udp%3A%2F%2Ftracker.coppersurfer.tk%3A6969&amp;tr=udp%3A%2F%2Fexodus.desync.com%3A6969","seeders":0,"leechers":1,"uploader":"LegendET","files":3,"time":1337454487,"description":"My Ghost Story: Caught on Camera\nS04E07 - Spirited Phone Call\nOriginal Air Date May 12, 2012\n\n&quot;Spirited Phone Call&quot; - Alexander Majors House Museum, Kansas City, Missouri\n&quot;Working Ghouls&quot; - Gypsy Rose Dancing (historic building), Quincy, Massachusetts\n&quot;Hide and Go Haunt&quot; - McNutt House, Vicksburg, Mississippi\n&quot;Sweet Caroline's Ghost&quot; - Miss Caroline's Bed &amp; Breakfast, St. Augustine, Florida\n&quot;Portal to Hell&quot; - (private residence), Bellaire, Ohio\n\nA woman meets an abusive entity from her past; an exotic dancer claims to have hundreds\nof clips of orbs flying around her studio; a woman's feels an entity move through her\nbody; a spirit of a child interacts and plays with guests at a bed and breakfast.\n\nSummary: &quot;A woman encounters an entity who has abused her in the past; hundreds of flying\norbs are seen at a pole dancing studio; and the spirit of a 5-year-old girl interacts with\nguests at a Florida bed and breakfast.&quot;\n\nFormat : AVI\nFile size : 443 MiB\nDuration : 43mn 15s\nOverall bit rate : 1 432 Kbps\n\nVideo\nFormat : MPEG-4 Visual\nCodec ID : XVID\nBit rate : 1 286 Kbps\nWidth : 624 pixels\nHeight : 352 pixels\nDisplay aspect ratio : 16:9\nFrame rate : 29.970 fps\nStream size : 398 MiB (90%)\nWriting library : XviD 1.2.1 (UTC 2008-12-04)\n\nAudio\nFormat : MPEG Audio\nCodec ID/Hint : MP3\nBit rate mode : Constant\nBit rate : 128 Kbps\nChannel(s) : 2 channels\nSampling rate : 44.1 KHz\nCompression mode : Lossy\nStream size : 39.6 MiB (9%) &lt;a href=&quot;\nhttp://www.shotpix.com/images/86017331448252543271.jpg&quot; rel=&quot;nofollow&quot; target=&quot;_NEW&quot;&gt;\nhttp://www.shotpix.com/images/86017331448252543271.jpg&lt;/a&gt;\n &lt;a href=&quot;\nhttp://www.shotpix.com/images/94805956014981583969.jpg&quot; rel=&quot;nofollow&quot; target=&quot;_NEW&quot;&gt;\nhttp://www.shotpix.com/images/94805956014981583969.jpg&lt;/a&gt;","torrent":{"xt":"urn:btih:267365532ffe135c83021974c173e44b467e25d3","amp;dn":"My+Ghost+Story+S04E07+WEBRip+HDTVXvid-GNeve","amp;tr":["udp%3A%2F%2Ftracker.openbittorrent.com%3A80","udp%3A%2F%2Fopen.demonii.com%3A1337","udp%3A%2F%2Ftracker.coppersurfer.tk%3A6969","udp%3A%2F%2Fexodus.desync.com%3A6969"],"infoHash":"267365532ffe135c83021974c173e44b467e25d3","infoHashBuffer":{"type":"Buffer","data":[38,115,101,83,47,254,19,92,131,2,25,116,193,115,228,75,70,126,37,211]},"announce":[],"urlList":[]}}